<?xml version="1.0" encoding="UTF-8"?>
<svg width="78px" height="42px" viewBox="0 0 78 42" version="1.1" xmlns="http://www.w3.org/2000/svg" xmlns:xlink="http://www.w3.org/1999/xlink">
    <!-- Generator: Sketch 40.2 (33826) - http://www.bohemiancoding.com/sketch -->
    <title>logo-blue</title>
    <desc>Created with Sketch.</desc>
    <defs></defs>
    <g id="Propuesta-Zamorano" stroke="none" stroke-width="1" fill="none" fill-rule="evenodd">
        <g id="Artboard" transform="translate(-54.000000, -12.000000)">
            <g id="logo-blue" transform="translate(54.000000, 12.000000)">
                <path d="M38.864,41.1958961 C37.813,41.1958961 37.281,40.7998961 36.501,40.0678961 L9,13.7948961 L9,31.2268961 C9,33.5278961 6.801,35.3938961 4.5,35.3938961 C2.198,35.3938961 0,33.5278961 0,31.2268961 L0,4.16789608 C0,2.50589608 0.833,1.00289608 2.357,0.342896078 C3.883,-0.317103922 5.576,-0.00810392191 6.787,1.12989608 L37.837,30.3108961 C39.722,27.0688961 42.509,22.5848961 45.968,18.0698961 C55.147,6.08689608 64.169,0.0108960781 72.804,0.0108960781 C75.105,0.0108960781 76.966,1.87789608 76.966,4.17889608 C76.966,6.48089608 75.098,8.34589608 72.797,8.34589608 C66.998,8.34589608 60.026,13.4278961 52.64,23.0418961 C46.642,30.8468961 42.633,38.8128961 42.593,38.8928961 C42.004,40.0698961 40.893,40.9008961 39.597,41.1308961 C39.354,41.1748961 39.108,41.1958961 38.864,41.1958961" id="Fill-11" fill="#FEFEFE"></path>
                <path d="M73.5001,35.3938961 C71.1991,35.3938961 69.0001,33.5278961 69.0001,31.2268961 L69.0001,14.2248961 C69.0001,11.9228961 71.1991,10.0578961 73.5001,10.0578961 C75.8021,10.0578961 78.0001,11.9228961 78.0001,14.2248961 L78.0001,31.2268961 C78.0001,33.5278961 75.8021,35.3938961 73.5001,35.3938961" id="Fill-12" fill="#0076FF"></path>
            </g>
        </g>
    </g>
</svg>