<?xml version="1.0" encoding="UTF-8"?>
<svg width="51px" height="27px" viewBox="0 0 51 27" version="1.1" xmlns="http://www.w3.org/2000/svg" xmlns:xlink="http://www.w3.org/1999/xlink">
    <!-- Generator: Sketch 40.2 (33826) - http://www.bohemiancoding.com/sketch -->
    <title>logo</title>
    <desc>Created with Sketch.</desc>
    <defs></defs>
    <g id="Propuesta-Zamorano" stroke="none" stroke-width="1" fill="none" fill-rule="evenodd">
        <g id="PROPUESTA-N1" transform="translate(-46.000000, -51.000000)">
            <g id="logo" transform="translate(37.000000, 27.437000)">
                <path d="M34.566,50.1547 C33.902,50.1547 32.792,49.9037 32.299,49.4417 L14.152,32.8447 L14.152,43.8567 C14.152,45.3107 13.105,46.4897 11.652,46.4897 C10.197,46.4897 9.152,45.3107 9.152,43.8567 L9.152,26.7627 C9.152,25.7127 10.109,24.7627 11.072,24.3467 C12.036,23.9297 13.321,24.1247 14.086,24.8427 L33.809,43.2787 C35,41.2297 36.815,38.3977 39,35.5447 C44.799,27.9747 50.526,24.1367 55.98,24.1367 C57.434,24.1367 58.623,25.3157 58.623,26.7687 C58.623,28.2237 57.45,29.4017 55.996,29.4017 C52.333,29.4017 47.932,32.6127 43.266,38.6857 C39.477,43.6167 36.946,48.6487 36.92,48.6997 C36.548,49.4427 35.847,49.9677 35.028,50.1137 C34.874,50.1407 34.72,50.1547 34.566,50.1547" id="Fill-3" fill="#3D3843"></path>
                <path d="M56.152,46.4893 C54.699,46.4893 53.152,45.3103 53.152,43.8563 L53.152,33.1153 C53.152,31.6613 54.699,30.4833 56.152,30.4833 C57.607,30.4833 59.152,31.6613 59.152,33.1153 L59.152,43.8563 C59.152,45.3103 57.607,46.4893 56.152,46.4893" id="Fill-5" fill="#FE2851"></path>
            </g>
        </g>
    </g>
</svg>